<?xml version="1.0" encoding="UTF-8"?>
<svg version="1.1" xmlns="http://www.w3.org/2000/svg" width="500" height="500">
<path d="M0 0 C165 0 330 0 500 0 C500 165 500 330 500 500 C335 500 170 500 0 500 C0 335 0 170 0 0 Z " fill="#FEFEFE" transform="translate(0,0)"/>
<path d="M0 0 C75.56951531 0 75.56951531 0 90.80078125 14.421875 C97.94828442 22.80083076 100.18019831 31.53433152 100.1875 42.1875 C100.19974609 43.10853516 100.21199219 44.02957031 100.22460938 44.97851562 C100.24970521 56.76519193 97.0735211 66.98019465 88.9375 75.75 C83.95493967 80.4884822 78.26854496 83.29529786 72 86 C73.70042603 90.14415205 76.6415183 93.24379837 79.5625 96.5625 C80.65723639 97.82206003 81.75097798 99.08248534 82.84375 100.34375 C83.38257813 100.96507812 83.92140625 101.58640625 84.4765625 102.2265625 C86.5478397 104.63774159 88.55921009 107.09467909 90.5625 109.5625 C93.82778962 113.58358902 97.14582724 117.55323357 100.5 121.5 C106.52920095 128.60329659 112.55289238 135.70767212 118.13549805 143.1706543 C118.67281052 143.88851608 119.21012299 144.60637787 119.76371765 145.34599304 C120.17169083 145.89181534 120.579664 146.43763763 121 147 C80.36752024 150.11574265 80.36752024 150.11574265 72.51953125 143.625 C69.40592925 139.98723232 67.29971435 135.89313888 65.30029297 131.56201172 C63.059661 127.1472179 59.8760298 123.49976151 56.75 119.6875 C55.58531491 118.19884467 54.42503459 116.70673097 53.26953125 115.2109375 C52.71861816 114.50163086 52.16770508 113.79232422 51.60009766 113.06152344 C49.20917433 109.98112115 46.82016294 106.89929726 44.4375 103.8125 C43.69371094 102.84957031 42.94992188 101.88664062 42.18359375 100.89453125 C39.72901902 97.64079265 37.36898256 94.31657558 35 91 C34.67 109.48 34.34 127.96 34 147 C22.78 147 11.56 147 0 147 C0 98.49 0 49.98 0 0 Z " fill="#6E29D9" transform="translate(213,168)"/>
<path d="M0 0 C18.15 0 36.3 0 55 0 C55 9.24 55 18.48 55 28 C48.07 27.67 41.14 27.34 34 27 C34 39.54 34 52.08 34 65 C44.395 64.505 44.395 64.505 55 64 C55 80.83 55 97.66 55 115 C51.43781369 111.43781369 48.20341305 107.97910633 45 104.125 C44.175 103.13757813 43.35 102.15015625 42.5 101.1328125 C39.8789244 97.84827713 37.44246012 94.41944417 35 91 C34.67 109.48 34.34 127.96 34 147 C22.78 147 11.56 147 0 147 C0 98.49 0 49.98 0 0 Z " fill="#6E2AD9" transform="translate(151,171)"/>
<path d="M0 0 C10.89 0 21.78 0 33 0 C33.04524622 14.29989305 33.08191363 28.59973828 33.10362434 42.89968681 C33.11404619 49.54025556 33.12817621 56.18074999 33.15087891 62.82128906 C33.17266422 69.23387279 33.18458066 75.64640692 33.18975449 82.05902481 C33.19344002 84.50134181 33.2006369 86.9436562 33.21146011 89.385952 C33.22605048 92.81579125 33.22797477 96.2454275 33.22705078 99.67529297 C33.23424133 100.67727219 33.24143188 101.6792514 33.24884033 102.71159363 C33.20768869 116.89692568 30.0375589 128.33843618 20.31640625 138.87109375 C14.73577982 144 14.73577982 144 11 144 C9.62508701 142.49212839 8.32635538 140.91460239 7.0625 139.3125 C4.42569833 136.00793686 1.78498341 132.72354561 -0.96875 129.515625 C-1.70943726 128.65263794 -1.70943726 128.65263794 -2.46508789 127.7722168 C-3.43025354 126.651498 -4.39809997 125.53308107 -5.36889648 124.41723633 C-7.65867455 121.74700538 -9.62746347 119.25487234 -11 116 C-10.52949219 115.6596875 -10.05898438 115.319375 -9.57421875 114.96875 C-8.95160156 114.4840625 -8.32898438 113.999375 -7.6875 113.5 C-6.76517578 112.80390625 -6.76517578 112.80390625 -5.82421875 112.09375 C-0.71024718 106.22418091 -0.55616179 99.11859946 -0.56762695 91.72851562 C-0.55233948 90.23446701 -0.55233948 90.23446701 -0.53674316 88.7102356 C-0.5067268 85.44218233 -0.49736446 82.17442274 -0.48828125 78.90625 C-0.47142618 76.63080886 -0.45327482 74.35537699 -0.43388367 72.07995605 C-0.38646776 66.10911962 -0.35660386 60.13832076 -0.33044434 54.1673584 C-0.30059647 48.06722597 -0.25408062 41.96722288 -0.20898438 35.8671875 C-0.12304674 23.91151126 -0.05720048 11.9558483 0 0 Z " fill="#6D28D9" transform="translate(330,170)"/>
<path d="M0 0 C20.46153846 0 20.46153846 0 26.875 5.4375 C31.28236116 10.75225905 31.43853231 14.92015945 31.30859375 21.73046875 C30.88681553 26.19918228 29.91723855 29.54694212 27 33 C18.74610722 39.54949264 10.62472405 38 0 38 C0 25.46 0 12.92 0 0 Z " fill="#FEFDFE" transform="translate(247,195)"/>
<path d="M0 0 C4.12507614 0.66295867 5.75668103 1.41575177 8.5 4.5625 C9.5625 8 9.5625 8 9.5 11.5625 C7.73358828 14.36439446 6.46950178 16.07774911 3.5 17.5625 C-2.76519337 18.1426105 -2.76519337 18.1426105 -5.875 15.6875 C-8.5564025 12.18105058 -9.02066537 9.98815562 -8.5 5.5625 C-5.88580444 1.91846982 -4.45776553 0.7164266 0 0 Z " fill="#8045DE" transform="translate(272.5,329.4375)"/>
<path d="M0 0 C2.02734375 0.63671875 2.02734375 0.63671875 4.08984375 2.26171875 C5.70294066 6.34823093 5.70294066 9.92520657 4.08984375 14.01171875 C0.74793438 16.64473826 -2.79392744 16.92213105 -6.97265625 16.63671875 C-10.03515625 15.19921875 -10.03515625 15.19921875 -11.97265625 12.63671875 C-12.75753227 7.69199983 -12.71027517 5.80263253 -10.03515625 1.57421875 C-6.28016755 -0.80138635 -4.27891147 -0.77604218 0 0 Z " fill="#7D40DD" transform="translate(361.97265625,330.36328125)"/>
<path d="M0 0 C8.07445099 -0.48205678 8.07445099 -0.48205678 12 1.5625 C14.65572297 4.79916237 15.07317145 6.82922721 15 11 C13.23358828 13.80189446 11.96950178 15.51524911 9 17 C5.99525503 17.13559318 3.00931153 17.04299016 0 17 C0 11.39 0 5.78 0 0 Z " fill="#6F2BD9" transform="translate(153,330)"/>
<path d="M0 0 C0.66 0 1.32 0 2 0 C3.375 1.546875 3.375 1.546875 5 3.75 C8.45272183 8.33416345 12.08210242 12.73063369 15.79882812 17.10058594 C19 20.89484314 19 20.89484314 19 22 C12.73 22 6.46 22 0 22 C0 14.74 0 7.48 0 0 Z " fill="#7534DB" transform="translate(253,296)"/>
<path d="M0 0 C1.60875 -0.061875 3.2175 -0.12375 4.875 -0.1875 C5.77992188 -0.22230469 6.68484375 -0.25710938 7.6171875 -0.29296875 C8.79667969 -0.14794922 8.79667969 -0.14794922 10 0 C12.46894264 3.70341396 11.82085415 4.80452324 11 9 C11.33 9.33 11.66 9.66 12 10 C12.1875 12.4375 12.1875 12.4375 12 15 C10 17 10 17 7.6171875 17.1953125 C6.71226562 17.17210937 5.80734375 17.14890625 4.875 17.125 C3.26625 17.08375 1.6575 17.0425 0 17 C0 11.39 0 5.78 0 0 Z " fill="#6D29D9" transform="translate(374,330)"/>
<path d="M0 0 C4 1 4 1 5.484375 3.28515625 C5.90203125 4.20167969 6.3196875 5.11820312 6.75 6.0625 C7.17796875 6.98160156 7.6059375 7.90070313 8.046875 8.84765625 C8.36140625 9.55792969 8.6759375 10.26820313 9 11 C10.96955252 8.50633687 12.49754584 6.19655316 13.6875 3.25 C14.120625 2.1775 14.55375 1.105 15 0 C16.32 0 17.64 0 19 0 C19 5.61 19 11.22 19 17 C18.01 17 17.02 17 16 17 C15.67 14.03 15.34 11.06 15 8 C13.68 10.97 12.36 13.94 11 17 C10.01 17 9.02 17 8 17 C6.68 14.03 5.36 11.06 4 8 C3.67 10.97 3.34 13.94 3 17 C2.01 17 1.02 17 0 17 C0 11.39 0 5.78 0 0 Z " fill="#7736DB" transform="translate(239,330)"/>
<path d="M0 0 C1.588125 -0.061875 3.17625 -0.12375 4.8125 -0.1875 C6.15248047 -0.23970703 6.15248047 -0.23970703 7.51953125 -0.29296875 C10 0 10 0 11.84375 1.34375 C13 3 13 3 12.6875 5.6875 C12.460625 6.450625 12.23375 7.21375 12 8 C11.01 8.33 10.02 8.66 9 9 C10.32 11.64 11.64 14.28 13 17 C11.68 17 10.36 17 9 17 C6 12.92857143 6 12.92857143 6 10 C5.01 10 4.02 10 3 10 C3 12.31 3 14.62 3 17 C2.01 17 1.02 17 0 17 C0 11.39 0 5.78 0 0 Z " fill="#7B3DDC" transform="translate(95,330)"/>
<path d="M0 0 C8 0 8 0 10.5 1.5 C10.995 1.995 11.49 2.49 12 3 C11.06395349 7.81395349 11.06395349 7.81395349 10.3125 10 C9.87970726 12.76987352 10.82468147 14.51109017 12 17 C10.1875 16.8125 10.1875 16.8125 8 16 C6.375 13.5 6.375 13.5 5 11 C4.34 10.67 3.68 10.34 3 10 C3 12.31 3 14.62 3 17 C2.01 17 1.02 17 0 17 C0 11.39 0 5.78 0 0 Z " fill="#7534DB" transform="translate(203,330)"/>
<path d="M0 0 C2.32421875 0.06640625 2.32421875 0.06640625 5 1 C6.2287699 3.3998938 7.04436044 5.39634323 7.8125 7.9375 C8.02841797 8.58396484 8.24433594 9.23042969 8.46679688 9.89648438 C10 14.58370536 10 14.58370536 10 17 C9.01 17 8.02 17 7 17 C6.67 16.01 6.34 15.02 6 14 C3.36 13.67 0.72 13.34 -2 13 C-2 14.32 -2 15.64 -2 17 C-2.99 17 -3.98 17 -5 17 C-3.83348574 11.07136283 -2.24480642 5.61201606 0 0 Z " fill="#7635DB" transform="translate(136,330)"/>
<path d="M0 0 C3.5625 0.3125 3.5625 0.3125 5.5625 1.375 C7.1779422 4.50491926 6.36134015 6.99424093 5.5625 10.3125 C2.51949684 11.83400158 -0.091585 11.55149393 -3.4375 11.3125 C-5.73913882 7.86004176 -5.78240322 6.36511287 -5.4375 2.3125 C-3.4375 0.3125 -3.4375 0.3125 0 0 Z " fill="#F9F7FD" transform="translate(272.4375,332.6875)"/>
<path d="M0 0 C6 0 6 0 8.375 1.6875 C10 4 10 4 10.5 6.5 C9.82597224 9.87013879 8.7912125 11.01677007 6 13 C4.02 13 2.04 13 0 13 C0 8.71 0 4.42 0 0 Z " fill="#EEE6FA" transform="translate(155,332)"/>
<path d="M0 0 C3.5 0.25 3.5 0.25 5.5 2.25 C5.75 5.75 5.75 5.75 5.5 9.25 C3.5 11.25 3.5 11.25 0 11.5 C-3.5 11.25 -3.5 11.25 -5.5 9.25 C-5.75 5.75 -5.75 5.75 -5.5 2.25 C-3.5 0.25 -3.5 0.25 0 0 Z " fill="#FCFBFE" transform="translate(358.5,332.75)"/>
<path d="M0 0 C1.670625 0.061875 1.670625 0.061875 3.375 0.125 C4.035 1.445 4.695 2.765 5.375 4.125 C2.735 3.795 0.095 3.465 -2.625 3.125 C-2.295 4.115 -1.965 5.105 -1.625 6.125 C-0.47 6.57875 0.685 7.0325 1.875 7.5 C3.03 8.03625 4.185 8.5725 5.375 9.125 C6.3125 11.8125 6.3125 11.8125 6.375 14.125 C4.8125 15.6875 4.8125 15.6875 2.375 17.125 C-1.375 16.8125 -1.375 16.8125 -4.625 16.125 C-4.955 14.805 -5.285 13.485 -5.625 12.125 C-4.635 12.125 -3.645 12.125 -2.625 12.125 C-2.625 12.785 -2.625 13.445 -2.625 14.125 C-0.645 14.125 1.335 14.125 3.375 14.125 C3.045 13.135 2.715 12.145 2.375 11.125 C0.07247517 10.05597061 -2.2622026 9.05324183 -4.625 8.125 C-5.625 7.125 -5.625 7.125 -5.8125 4.6875 C-5.49798355 0.38910851 -4.1611078 0.14348648 0 0 Z " fill="#7A3CDC" transform="translate(398.625,329.875)"/>
<path d="M0 0 C3.3 0 6.6 0 10 0 C10 0.66 10 1.32 10 2 C7.69 2 5.38 2 3 2 C3 3.65 3 5.3 3 7 C4.98 7 6.96 7 9 7 C9 7.66 9 8.32 9 9 C7.02 9 5.04 9 3 9 C3 10.98 3 12.96 3 15 C5.31 15 7.62 15 10 15 C10 15.66 10 16.32 10 17 C6.7 17 3.4 17 0 17 C0 11.39 0 5.78 0 0 Z " fill="#7839DB" transform="translate(222,330)"/>
<path d="M0 0 C2.97 0 5.94 0 9 0 C9 0.66 9 1.32 9 2 C7.02 2 5.04 2 3 2 C3 3.65 3 5.3 3 7 C4.98 7 6.96 7 9 7 C9 7.66 9 8.32 9 9 C7.02 9 5.04 9 3 9 C3 10.98 3 12.96 3 15 C4.98 15 6.96 15 9 15 C9 15.66 9 16.32 9 17 C6.03 17 3.06 17 0 17 C0 11.39 0 5.78 0 0 Z " fill="#712FDA" transform="translate(306,330)"/>
<path d="M0 0 C2.97 0 5.94 0 9 0 C9 0.66 9 1.32 9 2 C7.02 2 5.04 2 3 2 C3 3.65 3 5.3 3 7 C4.98 7 6.96 7 9 7 C9 7.66 9 8.32 9 9 C7.02 9 5.04 9 3 9 C3 10.98 3 12.96 3 15 C4.98 15 6.96 15 9 15 C9 15.66 9 16.32 9 17 C6.03 17 3.06 17 0 17 C0 11.39 0 5.78 0 0 Z " fill="#712FDA" transform="translate(115,330)"/>
<path d="M0 0 C1.875 0.125 1.875 0.125 4 1 C5.25 4.0625 5.25 4.0625 6 7 C6.66 7 7.32 7 8 7 C8.37125 5.5459375 8.37125 5.5459375 8.75 4.0625 C9.1625 3.051875 9.575 2.04125 10 1 C12.078125 0.30859375 12.078125 0.30859375 14 0 C13.65066406 0.64066406 13.30132812 1.28132813 12.94140625 1.94140625 C10.25423046 7.04932398 8.3767544 11.22309915 8 17 C7.01 17 6.02 17 5 17 C4.89042969 16.35933594 4.78085938 15.71867187 4.66796875 15.05859375 C3.67539672 9.6438309 2.37541347 4.96677361 0 0 Z " fill="#7C3FDC" transform="translate(173,330)"/>
<path d="M0 0 C0.99 0 1.98 0 3 0 C3.05383848 2.45862401 3.09359038 4.9160755 3.125 7.375 C3.14175781 8.07367188 3.15851563 8.77234375 3.17578125 9.4921875 C3.19344267 11.32897486 3.10303261 13.16601963 3 15 C1 17 1 17 -2.125 17.125 C-3.548125 17.063125 -3.548125 17.063125 -5 17 C-5.66 15.35 -6.32 13.7 -7 12 C-6.01 12 -5.02 12 -4 12 C-4 12.66 -4 13.32 -4 14 C-2.68 14 -1.36 14 0 14 C0 9.38 0 4.76 0 0 Z " fill="#7E41DD" transform="translate(339,330)"/>
<path d="M0 0 C3.96 0 7.92 0 12 0 C12 0.66 12 1.32 12 2 C10.68 2 9.36 2 8 2 C8 6.95 8 11.9 8 17 C7.01 17 6.02 17 5 17 C5 12.05 5 7.1 5 2 C3.35 2 1.7 2 0 2 C0 1.34 0 0.68 0 0 Z " fill="#7432DA" transform="translate(287,330)"/>
<path d="M0 0 C1.32 0 2.64 0 4 0 C4 5.61 4 11.22 4 17 C3.01 17 2.02 17 1 17 C0.67 13.7 0.34 10.4 0 7 C-0.66 7 -1.32 7 -2 7 C-1.125 2.25 -1.125 2.25 0 0 Z " fill="#7F42DD" transform="translate(254,330)"/>
<path d="M0 0 C1.65 0.33 3.3 0.66 5 1 C5.33 2.65 5.66 4.3 6 6 C5.34 6 4.68 6 4 6 C4.33 7.65 4.66 9.3 5 11 C1.95613276 11.08226668 -0.07175348 10.97608217 -3 10 C-2.01 6.7 -1.02 3.4 0 0 Z " fill="#7A3CDC" transform="translate(136,330)"/>
<path d="M0 0 C3.16115776 1.36983503 3.9927092 1.9890638 6 5 C5.92130934 9.32798647 5.64235506 11.32383678 2.625 14.5 C1.75875 14.995 0.8925 15.49 0 16 C-0.99 15.67 -1.98 15.34 -3 15 C-2.34 15 -1.68 15 -1 15 C-0.690625 14.360625 -0.38125 13.72125 -0.0625 13.0625 C1 11 1 11 2 10 C2.34229288 6.83379087 2.25632099 5.39516153 0.5 2.6875 C0.005 2.130625 -0.49 1.57375 -1 1 C-0.67 0.67 -0.34 0.34 0 0 Z " fill="#7E41DD" transform="translate(162,331)"/>
<path d="M0 0 C-0.598125 0.28875 -1.19625 0.5775 -1.8125 0.875 C-4.19327792 2.04742026 -4.19327792 2.04742026 -7 4 C-7.34062647 7.83204782 -6.87790928 11.26888555 -6 15 C-9 14 -9 14 -10.1875 12.3125 C-11.24297769 9.30844811 -11.39562151 7.16497211 -11 4 C-8.02080717 -0.52837311 -5.15974216 -0.39690324 0 0 Z " fill="#7939DC" transform="translate(275,331)"/>
<path d="M0 0 C1.98 0 3.96 0 6 0 C6.38218767 1.65614657 6.71395102 3.32457024 7 5 C6 6 6 6 2.9375 6.0625 C1.4834375 6.0315625 1.4834375 6.0315625 0 6 C0 4.02 0 2.04 0 0 Z " fill="#E8DEF9" transform="translate(376,339)"/>
<path d="M0 0 C1.65 0 3.3 0 5 0 C5.66 1.32 6.32 2.64 7 4 C5 6 5 6 2.375 6.125 C1.59125 6.08375 0.8075 6.0425 0 6 C0 4.02 0 2.04 0 0 Z " fill="#EBE2FA" transform="translate(98,332)"/>
<path d="M0 0 C1.65 0 3.3 0 5 0 C5.38218767 1.65614657 5.71395102 3.32457024 6 5 C5 6 5 6 2.4375 6.0625 C1.2309375 6.0315625 1.2309375 6.0315625 0 6 C0 4.02 0 2.04 0 0 Z " fill="#EFE8FB" transform="translate(206,332)"/>
<path d="M0 0 C1.98 0 3.96 0 6 0 C6.5625 1.9375 6.5625 1.9375 7 4 C6 5 6 5 2.9375 5.0625 C1.4834375 5.0315625 1.4834375 5.0315625 0 5 C0 3.35 0 1.7 0 0 Z " fill="#EAE1F9" transform="translate(376,332)"/>
<path d="M0 0 C1.9375 0.6875 1.9375 0.6875 4 2 C4.75 4.625 4.75 4.625 5 7 C4.360625 7.28875 3.72125 7.5775 3.0625 7.875 C0.84793921 8.82823451 0.84793921 8.82823451 0 11 C0.185625 9.9275 0.37125 8.855 0.5625 7.75 C0.9304568 4.59608454 1.04465343 2.90181508 0 0 Z " fill="#8349DE" transform="translate(103,330)"/>
<path d="M0 0 C0.99 0 1.98 0 3 0 C3 0.66 3 1.32 3 2 C4.65 2 6.3 2 8 2 C8 2.99 8 3.98 8 5 C5.69 4.67 3.38 4.34 1 4 C0.67 2.68 0.34 1.36 0 0 Z " fill="#864EDF" transform="translate(393,342)"/>
<path d="M0 0 C2.35953094 2.35953094 2.49141413 3.77895617 3 7 C1.35 7 -0.3 7 -2 7 C-1.125 1.125 -1.125 1.125 0 0 Z " fill="#F2ECFB" transform="translate(138,334)"/>
<path d="M0 0 C1.32 0.33 2.64 0.66 4 1 C4.6875 3.3125 4.6875 3.3125 5 6 C4.01 6.99 3.02 7.98 2 9 C1.34 6.03 0.68 3.06 0 0 Z " fill="#7E41DD" transform="translate(381,330)"/>
<path d="M0 0 C0.99 0.33 1.98 0.66 3 1 C2.67 2.65 2.34 4.3 2 6 C0.35 6.33 -1.3 6.66 -3 7 C-2.34 6.34 -1.68 5.68 -1 5 C-0.35232207 2.42938689 -0.35232207 2.42938689 0 0 Z " fill="#7433DA" transform="translate(402,339)"/>
<path d="M0 0 C0.66 0 1.32 0 2 0 C2 1.65 2 3.3 2 5 C0.02 5.99 0.02 5.99 -2 7 C-1.125 1.125 -1.125 1.125 0 0 Z " fill="#7D40DD" transform="translate(384,340)"/>
<path d="M0 0 C2.31 0 4.62 0 7 0 C7.66 1.32 8.32 2.64 9 4 C5.625 3.6875 5.625 3.6875 2 3 C1.34 2.01 0.68 1.02 0 0 Z " fill="#8851E0" transform="translate(395,330)"/>
<path d="M0 0 C-5 2.5 -5 2.5 -10 5 C-9.625 3.0625 -9.625 3.0625 -9 1 C-6.04335481 -0.4783226 -3.25770263 -0.06032783 0 0 Z " fill="#712FDA" transform="translate(275,331)"/>
</svg>
